<?xml version="1.0" standalone="no"?>
<!DOCTYPE svg PUBLIC "-//W3C//DTD SVG 20010904//EN"
 "http://www.w3.org/TR/2001/REC-SVG-20010904/DTD/svg10.dtd">
<svg version="1.0" xmlns="http://www.w3.org/2000/svg"
 width="227.000000pt" height="222.000000pt" viewBox="0 0 227.000000 222.000000"
 preserveAspectRatio="xMidYMid meet">

<g transform="translate(0.000000,222.000000) scale(0.100000,-0.100000)"
fill="#000000" stroke="none">
<path d="M1130 2207 c0 -3 7 -21 15 -40 30 -72 11 -141 -75 -267 -23 -34 -48
-76 -56 -95 -16 -40 -19 -128 -4 -156 13 -23 2 -24 -28 -3 -39 27 -52 66 -50
151 2 57 -2 86 -15 110 -18 34 -65 67 -110 78 l-28 7 25 -36 c38 -57 40 -84
10 -207 l-26 -112 -29 67 c-37 88 -61 120 -101 139 -32 14 -138 32 -138 23 0
-2 15 -14 34 -26 54 -33 86 -107 86 -197 0 -43 6 -89 15 -110 19 -44 19 -43
-5 -43 -13 0 -35 21 -63 60 -51 70 -78 93 -130 109 -38 13 -84 8 -126 -14 -23
-12 -22 -12 22 -24 65 -16 108 -63 142 -153 15 -40 40 -90 56 -110 28 -36 29
-38 10 -48 -11 -5 -32 -10 -48 -10 -34 0 -135 47 -201 92 -41 29 -55 33 -112
33 -67 0 -141 -28 -175 -65 -14 -16 -12 -18 34 -23 89 -11 144 -42 230 -133
83 -89 174 -144 236 -144 l30 0 -30 -20 c-40 -27 -83 -25 -155 5 -91 38 -132
33 -193 -24 -57 -52 -54 -59 21 -53 80 5 113 -6 209 -75 l68 -48 -76 -6 c-95
-8 -139 -22 -172 -57 -22 -23 -57 -88 -57 -106 0 -3 21 8 47 24 68 43 101 46
191 19 42 -12 101 -23 130 -23 28 0 52 -3 52 -7 0 -15 -61 -58 -90 -63 -16 -3
-43 -9 -60 -12 -32 -6 -86 -61 -95 -97 -4 -13 -5 -45 -3 -72 l3 -49 27 41 c35
53 96 83 170 83 30 0 74 6 96 14 38 14 41 13 47 -3 13 -41 -15 -77 -106 -136
-77 -50 -118 -98 -126 -149 -6 -36 14 -157 26 -155 3 0 17 24 31 52 33 66 88
105 212 146 51 18 105 42 119 54 36 30 79 95 79 121 1 21 1 21 16 1 28 -35 13
-94 -39 -158 -68 -84 -73 -136 -19 -227 l27 -45 6 55 c10 92 28 116 163 216
45 33 48 34 42 13 -4 -13 -14 -58 -23 -99 -16 -71 -15 -77 1 -113 10 -20 37
-52 59 -69 l40 -32 -9 29 c-5 17 -9 57 -9 91 0 56 3 65 41 115 48 63 74 111
74 136 1 16 3 15 20 -6 16 -18 20 -39 20 -95 1 -123 43 -183 137 -194 l46 -5
-25 34 c-52 69 -57 119 -23 239 8 30 13 67 9 83 -5 23 -2 27 17 27 36 0 85
-63 118 -152 47 -126 62 -151 103 -171 30 -15 50 -17 107 -11 l69 6 -41 32
c-68 52 -81 84 -87 217 -5 99 -10 123 -33 171 -15 31 -44 70 -63 87 l-35 31
32 0 c56 0 98 -29 146 -101 34 -51 54 -71 84 -83 22 -9 46 -16 54 -16 27 0
115 22 115 28 0 4 -22 15 -49 25 -62 22 -92 57 -126 149 -15 40 -34 83 -41 96
-19 29 -11 28 39 -7 108 -74 165 -82 243 -35 l49 29 -55 5 c-67 7 -111 29
-141 72 -35 51 -81 98 -114 116 l-30 15 26 7 c25 7 67 2 165 -21 46 -11 55
-10 85 7 35 21 97 99 87 110 -3 3 -21 -2 -39 -11 -54 -28 -132 -17 -199 28
-30 21 -72 42 -93 48 -37 10 -38 11 -24 32 26 40 65 51 200 57 105 5 132 10
155 26 37 27 59 78 64 145 l4 56 -42 -33 c-81 -61 -123 -65 -253 -22 -82 27
-179 21 -250 -13 l-48 -25 8 31 c13 45 59 82 121 94 103 22 144 65 155 164 l5
52 -32 -38 c-55 -64 -106 -80 -227 -69 l-73 7 55 45 c31 25 64 64 76 88 20 40
21 48 8 105 l-13 61 -18 -45 c-28 -66 -72 -105 -144 -129 -34 -12 -80 -34
-102 -50 -22 -16 -43 -26 -46 -23 -14 15 -4 55 23 85 79 92 87 189 20 261
l-29 32 6 -41 c8 -57 -21 -121 -77 -165 -24 -19 -63 -54 -87 -78 -39 -39 -46
-42 -59 -28 -22 22 -26 94 -8 157 50 179 50 174 24 227 -17 34 -39 57 -76 80
-29 19 -53 32 -53 30z m159 -612 c153 -36 312 -161 378 -296 143 -292 28 -630
-262 -769 -44 -21 -104 -43 -133 -49 -353 -73 -692 202 -692 559 0 153 54 284
165 396 143 146 347 205 544 159z"/>
<path d="M1033 1555 c-130 -28 -275 -131 -339 -240 -26 -44 -26 -46 -8 -60 29
-22 40 -18 55 17 20 49 126 149 192 182 73 37 170 61 165 41 -2 -7 -21 -69
-43 -139 l-40 -125 -144 -3 -145 -3 42 -27 c38 -25 50 -28 132 -28 49 0 90 -4
90 -9 0 -5 -7 -28 -15 -52 -15 -43 -15 -45 6 -62 12 -10 25 -14 29 -10 6 6 69
194 170 506 9 27 9 27 -38 26 -26 0 -75 -7 -109 -14z"/>
<path d="M1216 1538 c-9 -35 -9 -35 36 -41 106 -14 258 -123 316 -226 l23 -41
-148 0 -149 0 -43 133 c-44 130 -44 131 -57 102 -19 -44 -17 -83 10 -163 l25
-72 -55 0 c-49 0 -55 -2 -64 -26 -6 -14 -10 -27 -10 -30 0 -2 129 -4 286 -4
l286 0 -7 27 c-24 95 -120 222 -216 284 -56 36 -167 79 -203 79 -16 0 -26 -7
-30 -22z"/>
<path d="M634 1174 c-23 -80 -15 -238 15 -317 25 -64 96 -175 123 -191 13 -8
22 -6 37 8 l21 19 -34 37 c-79 88 -116 188 -116 318 0 68 3 83 14 79 31 -12
226 -159 226 -171 0 -6 -18 -66 -40 -131 -22 -65 -40 -120 -40 -122 0 -2 18 9
40 23 35 23 43 36 67 110 15 46 31 84 36 84 5 0 26 -13 46 -29 37 -30 38 -30
65 -12 l28 19 -73 54 c-144 105 -388 278 -393 278 -3 0 -13 -25 -22 -56z"/>
<path d="M1345 880 c45 -137 85 -259 88 -271 6 -21 7 -20 52 12 128 92 211
273 203 439 -3 64 -3 65 -34 68 l-30 3 4 -64 c8 -119 -37 -248 -117 -338 l-38
-43 -46 139 c-26 76 -43 141 -39 144 4 4 55 40 112 81 l105 75 -48 3 c-43 3
-54 -1 -119 -47 -39 -28 -74 -48 -78 -46 -4 2 -13 25 -20 50 -12 42 -15 45
-45 45 l-33 0 83 -250z"/>
<path d="M1045 800 c-121 -87 -220 -165 -220 -172 0 -7 23 -27 51 -44 144 -85
338 -97 498 -30 33 14 35 16 25 44 l-10 29 -62 -25 c-110 -45 -271 -41 -370
10 l-38 19 23 18 c13 10 65 48 116 85 l94 67 51 -36 c29 -19 81 -57 116 -82
61 -44 64 -45 57 -20 -14 58 -27 74 -95 122 -39 28 -71 52 -71 55 0 3 20 18
44 34 41 28 43 31 34 58 -6 15 -13 28 -16 28 -4 -1 -106 -73 -227 -160z"/>
</g>
</svg>
